<?xml version="1.0" encoding="UTF-8" standalone="no"?>
<!-- Created with Inkscape (http://www.inkscape.org/) -->

<svg
   version="1.1"
   id="svg1"
   width="546.53333"
   height="165.25333"
   viewBox="0 0 546.53333 165.25333"
   sodipodi:docname="Truly Logo 2.eps"
   xmlns:inkscape="http://www.inkscape.org/namespaces/inkscape"
   xmlns:sodipodi="http://sodipodi.sourceforge.net/DTD/sodipodi-0.dtd"
   xmlns="http://www.w3.org/2000/svg"
   xmlns:svg="http://www.w3.org/2000/svg">
  <defs
     id="defs1" />
  <sodipodi:namedview
     id="namedview1"
     pagecolor="#ffffff"
     bordercolor="#000000"
     borderopacity="0.25"
     inkscape:showpageshadow="2"
     inkscape:pageopacity="0.0"
     inkscape:pagecheckerboard="0"
     inkscape:deskcolor="#d1d1d1">
    <inkscape:page
       x="0"
       y="0"
       inkscape:label="1"
       id="page1"
       width="546.53333"
       height="165.25333"
       margin="0"
       bleed="0" />
  </sodipodi:namedview>
  <g
     id="g1"
     inkscape:groupmode="layer"
     inkscape:label="1">
    <g
       id="group-R5">
      <path
         id="path2"
         d="m 1388.92,845.832 c -29.12,-59.016 -85.81,-74.383 -151.11,-73.434 l -40.17,2.211 0.54,19.914 v 0.403 c -2.5,104.398 2.15,210.164 2.15,313.964 77.55,2.91 135.19,5.4 175.39,-55.3 23.47,-35.47 32.5,-72.375 32.68,-109.922 0.17,-34.422 -2.46,-63.355 -19.48,-97.836 z m 162.09,-313.656 c -51.5,64.801 -79.09,114.519 -121.79,185.82 -2.95,5.024 -21.26,38.434 -31.12,49.031 0,0 30.34,20.715 35.6,25.453 58.87,53.047 86.19,140.442 60.22,231.11 -17.57,61.38 -101.71,126.05 -193.65,126.05 -52.27,0 -90,-0.3 -164.03,-0.3 -59.11,0 -82.46,0.3 -120.98,2.59 -0.06,-4.93 0,-9.3 0,-9.3 75.9,-4.86 83.74,-40.68 83.37,-109.71 -0.78,-143.197 0.6,-288.44 0,-431.639 -0.29,-61.629 6.63,-155.523 -82.45,-155.523 0,0 -0.04,-7.164 -0.04,-12.774 47.55,0 64.58,5.313 139.2,5.313 77.02,0 93.42,-5.973 130.6,-5.973 -0.08,5.039 0.11,13.043 0.11,13.043 -29.11,0.391 -49.51,10.078 -64.59,25.465 -33.3,34.199 -24.62,188.715 -24.62,267.313 49.25,-1.567 106.34,-0.446 106.34,-0.446 11.86,-25.375 30.52,-50.344 51.94,-85.746 26.6,-44.101 42.79,-75.758 71.19,-118.656 23.76,-35.828 57.56,-70.539 105.81,-85.746 42.63,-13.434 143,-13.074 164.19,-13.137 0,2.449 0,12.238 0,12.238 -79.25,-1.339 -116.49,49.203 -145.3,85.524"
         style="fill:#ffffff;fill-opacity:1;fill-rule:nonzero;stroke:none"
         transform="matrix(0.13333333,0,0,-0.13333333,0,165.25333)" />
      <path
         id="path3"
         d="m 1989.57,1151.93 c -0.3,-6.05 -0.3,-10.23 -0.3,-10.23 -50.49,0 -86.04,-38.66 -86.04,-98.72 0,-128.281 -1.55,-257.968 0.7,-384.144 6.1,-127.258 110.52,-214.867 258.92,-178.199 89.36,26.015 125.54,111.586 127.42,182.734 3.71,140.449 1.34,257.008 1.34,404.769 0,31.8 -30.31,73.22 -87.25,73.44 0,0 -0.22,5.45 -0.3,11.06 28.32,0 46.36,-3.45 116.66,-3.45 74.32,0 77.92,4.33 113.27,4.33 -0.07,-3.73 0,-11.94 0,-11.94 -78.96,-0.08 -81.02,-48.36 -81.02,-100.65 0,-118.364 1.68,-220.832 -3.6,-339.051 0.88,-186.77 -109.25,-275.922 -268.84,-275.922 -155.19,0 -272.5,86.52 -272.5,286.367 0,118.219 -0.9,232.539 -1.79,337.016 -2.46,61.08 -25.02,92.36 -85.95,92.36 0,0 -0.07,2.8 0,10.23 40.91,0 59.98,-3.19 132.52,-3.19 72.08,0 96.5,3.19 136.76,3.19"
         style="fill:#ffffff;fill-opacity:1;fill-rule:nonzero;stroke:none"
         transform="matrix(0.13333333,0,0,-0.13333333,0,165.25333)" />
      <path
         id="path4"
         d="m 3099.22,1153 c 38.81,-2.46 88.25,-2.19 137.79,-1.81 46.77,0.36 86.69,-0.65 130.27,3.3 0,-8.66 0,-12.09 0,-12.09 -57.91,-5.6 -71.64,-24.1 -71.64,-45.6 0,-9.46 1.94,-17.68 23.58,-52.83 44.64,-72.493 89.01,-146.642 138.4,-227.47 0.97,-1.586 3.32,-1.578 4.29,0.004 31.23,50.894 62.11,98.73 89.6,143.934 19.04,31.304 37.16,63.182 56.53,94.272 12.14,19.49 19.77,35.68 18.94,47.77 -1.89,27.7 -29.64,36.45 -68.44,39.1 0,0 0,4.85 0,9.8 31.29,0 71.63,-1.08 110.56,-1.08 39.68,0 77.88,-0.66 107.5,1.08 -0.14,-4.69 0,-9.8 0,-9.8 -31.96,0 -58.72,-17.88 -77.08,-42.39 -22.46,-29.99 -22.46,-32.7 -62.98,-91.94 -39.23,-57.34 -108.66,-170.895 -143.88,-222.535 -3.83,-5.613 -7.02,-7.762 -7.02,-21.195 0,-12.809 -0.45,-34.915 -0.45,-48.36 0,-64.625 0.33,-97.453 0.75,-155.222 0.35,-47.52 5.21,-114.18 88.42,-114.18 0,0 -0.03,-3.133 -0.3,-12.871 -38.88,0 -65.88,2.125 -130.36,2.125 -68.95,0 -98.52,-2.153 -139.62,-2.153 0.04,5.809 0.04,12.899 0.04,12.899 92.11,0.222 86.21,90.894 86.21,102.742 0,70.988 0.08,106.586 0.08,169.496 0,50.359 0.19,28.418 -46.38,112.598 -45.81,69.765 -102.09,161.195 -149.55,235.076 -20.79,30.06 -43.91,75.91 -95.26,75.52 0,0 0,5.95 0,11.81"
         style="fill:#ffffff;fill-opacity:1;fill-rule:nonzero;stroke:none"
         transform="matrix(0.13333333,0,0,-0.13333333,0,165.25333)" />
      <path
         id="path5"
         d="m 544.914,1110.83 c -6.242,0 -129.523,-0.7 -146.094,-0.7 -67.773,0 -80.644,-18.5 -87.652,-30.69 -5.152,-8.96 -21.281,-41.1 -27.219,-55.39 0,0 -4.886,-0.04 -9.961,0.04 16.965,61.09 31.801,103.83 33.145,161.14 2.406,0 9.18,0 9.18,0 0,-29.32 3.804,-32.01 56.195,-31.11 52.871,0.9 137.445,-5.09 214.914,-4.93 106.82,0.23 232.098,6.27 267.769,6.27 30.446,0 43.797,2.5 48.797,24.09 5.153,0.11 8.004,0.15 13.211,0.09 -4.758,-13.81 -22.453,-97.39 -24.84,-149.55 -1.812,0 -12.441,-0.07 -12.441,-0.07 5.746,50.47 -16.934,78.04 -56.75,79.16 -51.383,1.45 -123.117,0.61 -178.953,0.61 -0.152,-11.79 0.062,-23.25 0.047,-35.79 -0.188,-171.645 -0.039,-343.285 0.633,-514.922 0.214,-54.363 7.484,-118.66 88.988,-119.066 0,0 -0.113,-6.157 -0.16,-9.824 l -117.539,5.398 c -13.719,0.629 -27.457,0.629 -41.176,0 l -117.703,-5.398 c 0.113,1.539 0.168,10.378 0.168,10.378 68.488,0.34 86.89,58.329 87.582,125.43 1.847,179.797 -0.141,353.043 -0.141,544.834"
         style="fill:#ffffff;fill-opacity:1;fill-rule:nonzero;stroke:none"
         transform="matrix(0.13333333,0,0,-0.13333333,0,165.25333)" />
      <path
         id="path6"
         d="m 2995.94,582.605 c 0,-44.367 0,-104.691 0,-150.281 -103.04,2.594 -167.16,5.375 -246.27,5.375 -89.55,0 -134.01,-3.691 -211.13,-5.375 0,6.492 0,13.434 0,13.434 73.22,-2.688 82.62,59.555 84.36,114.871 5.07,161.891 5.88,239.309 -1.17,479.261 -1.35,45.87 -3.26,101.69 -83.19,101.69 0,0 0,4.69 0,10.08 43.07,-2.17 62.92,-3.36 133.22,-3.36 60.6,0 88.81,1.34 127.99,3.36 0.08,-5.9 0.06,-10.08 0.06,-10.08 -46.79,0 -73.8,-35.6 -73.8,-99.7 -4.1,-158.657 -4.56,-306.232 -2.49,-459.286 0,-70.953 -3.82,-102.453 107.96,-102.453 111.38,0 145.36,32.183 153.48,102.519 0,0 5.05,-0.055 10.98,-0.055"
         style="fill:#ffffff;fill-opacity:1;fill-rule:nonzero;stroke:none"
         transform="matrix(0.13333333,0,0,-0.13333333,0,165.25333)" />
      <path
         id="path7"
         d="m 3403.31,173.852 c -4.53,23.5 15.73,43.757 39.23,39.218 13,-2.511 23.61,-13.179 26.03,-26.199 4.35,-23.41 -15.76,-43.492 -39.13,-39.082 -12.99,2.449 -23.63,13.07 -26.13,26.063 z m 102.18,-14.723 101.34,1.191 v -31.84 c 0,-6.332 5.13,-11.468 11.47,-11.468 h 12.2 c 6.34,0 11.47,5.136 11.47,11.468 v 31.84 h 24.04 v -31.84 c 0,-6.332 5.13,-11.468 11.47,-11.468 h 12.2 c 6.33,0 11.47,5.136 11.47,11.468 v 31.84 H 3713 c 7.62,0 13.87,6.239 13.87,13.871 v 6.258 c 0,9.699 -7.87,17.571 -17.57,17.571 h -202.75 c -8.82,35.82 -44.31,61.179 -84.16,53.992 -28.92,-5.215 -52.39,-28.321 -57.9,-57.184 -8.89,-46.527 26.55,-87.168 71.43,-87.168 34.13,0 61.09,24.871 69.57,51.469"
         style="fill:#ffffff;fill-opacity:1;fill-rule:nonzero;stroke:none"
         transform="matrix(0.13333333,0,0,-0.13333333,0,165.25333)" />
      <path
         id="path8"
         d="M 539.051,268.813 V 104.109 c 0,-13.3004 3.101,-21.8004 7.301,-27.0973 l 1,-1.1015 c 4.5,-4.3008 11.3,-7.5 21.699,-7.6993 h 0.699 v -5.9023 h -93.098 v 5.9023 h 0.7 c 10.398,0.1993 17.199,3.3985 21.699,7.6993 l 1,1.1015 c 4.199,5.2969 7.301,13.7969 7.301,27.0973 v 164.704 c 0,13.3 -3.102,21.8 -7.301,27.097 l -1,1.102 c -4.399,4.199 -11,7.398 -21,7.601 h -0.301 l -1.098,0.098 v 5.902 h 93.098 v -6.101 l -1.098,0.101 h -0.3 c -10,-0.203 -16.602,-3.402 -21,-7.601 l -1,-1.102 c -4.2,-5.297 -7.301,-13.797 -7.301,-27.097"
         style="fill:#ffffff;fill-opacity:1;fill-rule:nonzero;stroke:none"
         transform="matrix(0.13333333,0,0,-0.13333333,0,165.25333)" />
      <path
         id="path9"
         d="M 2754.6,238.719 V 102.84 c 0,-10.9689 2.56,-17.9806 6.02,-22.3517 l 0.83,-0.9102 c 3.71,-3.5468 9.32,-6.1875 17.9,-6.3476 h 0.58 v -4.8711 h -76.81 v 4.8711 h 0.58 c 8.58,0.1601 14.19,2.8008 17.9,6.3476 l 0.82,0.9102 c 3.47,4.3711 6.03,11.3828 6.03,22.3517 v 135.879 c 0,10.976 -2.56,17.988 -6.03,22.359 l -0.82,0.906 c -3.63,3.469 -9.08,6.106 -17.33,6.274 h -0.24 l -0.91,0.082 v 4.867 h 76.81 v -5.031 l -0.91,0.082 h -0.25 c -8.25,-0.168 -13.69,-2.805 -17.32,-6.274 l -0.83,-0.906 c -3.46,-4.371 -6.02,-11.383 -6.02,-22.359"
         style="fill:#ffffff;fill-opacity:1;fill-rule:nonzero;stroke:none"
         transform="matrix(0.13333333,0,0,-0.13333333,0,165.25333)" />
      <path
         id="path10"
         d="M 652.09,214.328 V 95.1797 c 0,-8.4688 1.973,-13.8711 4.644,-17.25 l 0.637,-0.6992 c 2.863,-2.7305 7.192,-4.7696 13.809,-4.9024 h 0.445 v -3.75 h -59.234 v 3.75 h 0.445 c 6.613,0.1328 10.941,2.1719 13.805,4.9024 l 0.636,0.6992 c 2.672,3.3789 4.645,8.7812 4.645,17.25 V 272.832 h 6.289 L 778.828,125.109 780,125.578 v 117.703 c 0,25.262 -19.703,23.582 -23.883,23.582 l -0.09,5.969 h 62.481 v -5.914 c -19.403,0 -20.895,-14.086 -20.895,-23.637 l 0.582,-173.8005 c 0.004,-1.2813 -1.55,-1.9297 -2.449,-1.0117 L 652.09,214.328"
         style="fill:#ffffff;fill-opacity:1;fill-rule:nonzero;stroke:none"
         transform="matrix(0.13333333,0,0,-0.13333333,0,165.25333)" />
      <path
         id="path11"
         d="m 947.91,68.1289 c -2.41,-5.1875 -2.707,-5.3203 -5.336,0.2617 -7.496,15.9102 -16.457,38.6214 -25.969,60.3394 -12.539,24.739 -36.492,77.239 -50.152,105.45 -8.617,14.996 -13.656,32.683 -29.66,33.578 0,0 0,3.18 0,5.074 12.535,0.109 23.359,-0.121 39.402,0 15.145,0.117 21.493,0.008 35.598,0 0,-2.801 0,-5.074 0,-5.074 -16.344,0 -18.695,-5.914 -18.695,-12.871 0,-3.067 1.531,-9.559 6.828,-21.828 12.762,-29.559 34.906,-81.629 49.926,-110.598 h 1.386 c 10.114,16.48 28.254,59.848 35.328,75.449 4.926,10.86 12.895,26.918 17.934,38 3.07,6.766 5.24,12.469 6.13,16.289 1.66,7.067 -1.67,15.336 -18.915,15.336 0,0 -0.016,3.543 -0.016,5.145 10.131,0 20.321,-0.446 32.931,-0.446 12.85,0 16.64,0.403 26.41,0.653 -0.04,-1.516 0,-6.024 0,-6.024 -11.64,-0.109 -14.32,-5.597 -19.47,-15 -5.83,-10.644 -11.87,-23.285 -20.6,-43.433 -8.94,-20.641 -28.376,-62.821 -36.193,-79.481 C 969.508,117.73 964.77,107.891 960.598,98.1719 L 947.91,68.1289"
         style="fill:#ffffff;fill-opacity:1;fill-rule:nonzero;stroke:none"
         transform="matrix(0.13333333,0,0,-0.13333333,0,165.25333)" />
      <path
         id="path12"
         d="m 2378.35,143.91 c 7.4,16.399 24.2,56.5 33.7,72.102 h 1.4 c 9.6,-18.5 22.2,-46.703 33.2,-72.102 z m 116.5,-37 c -3.8,7.899 -8.4,17.602 -13.3,28.199 -1.4,2.903 -2.8,5.801 -4.2,8.801 -11.3,24.199 -23.6,50.602 -31.4,66 -9.3,21.199 -18.1,43.403 -25.4,58.903 -2.6,5.5 -2.9,5.3 -5.2,0.3 l -12.4,-29.402 c -4.1,-9.5 -8.7,-19.102 -13.8,-30 -6.4,-13.5 -20.5,-44.301 -30.2,-65.801 -1.4,-3.199 -2.7,-6.101 -3.8,-8.801 -0.6,-1.097 -1,-2.097 -1.4,-3 -8.5,-19.699 -14.4,-32 -20.1,-42.3981 -5,-9.1992 -7.6,-14.6015 -19,-14.6992 0,0 0,-4.4023 0,-5.9023 9.5,0.3008 13.2,0.6992 25.8,0.6992 12.3,0 22.2,-0.5 32.1,-0.5 0,1.6016 0,5.1016 0,5.1016 -16.8,0 -20.1,8 -18.4,14.8984 0.8,3.8008 2.9,9.3008 5.9,15.9024 4,8.598 9.6,20.199 14.2,29.898 h 76.2 c 4.4,-10.097 8.4,-19.398 11.7,-27.097 5.2,-12.0003 6.7,-18.3011 6.7,-21.3011 0,-6.8007 -2.3,-12.6015 -18.2,-12.6015 0,0 0,-2.1992 0,-4.8985 13.7,0 19.9,-0.1015 34.7,0 15.7,0.0977 26.2,-0.1015 38.5,0 0,1.8008 0,4.8985 0,4.8985 -15.6,0.9023 -20.6,18.1992 -29,32.8006"
         style="fill:#ffffff;fill-opacity:1;fill-rule:nonzero;stroke:none"
         transform="matrix(0.13333333,0,0,-0.13333333,0,165.25333)" />
      <path
         id="path13"
         d="m 3034.2,143.16 c 7.4,16.399 24.2,56.5 33.7,72.102 h 1.4 c 9.6,-18.5 22.2,-46.703 33.2,-72.102 z m 116.5,-37 c -3.8,7.899 -8.4,17.602 -13.3,28.199 -1.4,2.903 -2.8,5.801 -4.2,8.801 -11.3,24.199 -23.6,50.602 -31.4,66 -9.3,21.199 -18.1,43.399 -25.4,58.899 -2.6,5.5 -2.9,5.3 -5.2,0.3 l -12.4,-29.398 c -4.1,-9.5 -8.7,-19.102 -13.8,-30 -6.4,-13.5 -20.5,-44.301 -30.2,-65.801 -1.4,-3.199 -2.7,-6.101 -3.8,-8.801 -0.6,-1.097 -1,-2.097 -1.4,-3 -8.5,-19.699 -14.4,-31.9996 -20.1,-42.3981 -5,-9.1992 -7.6,-14.6015 -19,-14.6992 0,0 0,-4.4023 0,-5.9023 9.5,0.3008 13.2,0.6992 25.8,0.6992 12.3,0 22.2,-0.5 32.1,-0.5 0,1.6016 0,5.1016 0,5.1016 -16.8,0 -20.1,8 -18.4,14.8984 0.8,3.8008 2.9,9.3008 5.9,15.9024 4,8.598 9.6,20.199 14.2,29.898 h 76.2 c 4.4,-10.097 8.4,-19.398 11.7,-27.097 5.2,-12.0003 6.7,-18.3011 6.7,-21.3011 0,-6.8007 -2.3,-12.6015 -18.2,-12.6015 0,0 0,-2.1992 0,-4.8985 13.7,0 19.9,-0.1015 34.7,0 15.7,0.0977 26.2,-0.1015 38.5,0 0,1.8008 0,4.8985 0,4.8985 -15.6,0.9023 -20.6,18.1992 -29,32.8006"
         style="fill:#ffffff;fill-opacity:1;fill-rule:nonzero;stroke:none"
         transform="matrix(0.13333333,0,0,-0.13333333,0,165.25333)" />
      <path
         id="path14"
         d="m 1196.55,272.813 v -36.801 h -6 c 0,17.199 -8.54,25 -37,25 0,0 0.63,0 -14.97,0 -17.46,0 -18.93,-3.102 -20.53,-6.602 l -0.5,-1.597 c -0.2,-0.801 -0.4,-1.602 -0.5,-2.5 -0.1,-1.602 -0.1,-3.102 -0.1,-4.301 v -61.633 c 0,-1.098 0,-1.699 0,-1.699 0,0 21,0 33.3,0 12.3,0 22.6,6.699 22.6,19.199 l 5.6,0.101 v -47.878 h -5.6 v 0.097 c 0,12.5 -10.3,19.199 -22.6,19.199 -12.3,0 -33.3,0 -33.3,0 0,0 0,-0.597 0,-1.699 l 0.14,-5.578 c 0,0 0.28,-23.211 0.28,-53.711 0,-2.5 0.2,-4.699 0.6,-6.801 l 0.4,-2.398 c 2.9,-12.1016 8.73,-14.1212 13.94,-16.1212 5.82,-2.2382 15.29,-1.5703 16.79,-1.5703 h 18.5 c 3.4,0 8.06,-0.6679 12.01,2.4805 7.27,5.8086 10.94,9.5117 10.94,23.309 h 6 V 69.2109 h -129.2 v 4.8008 c 0,0 10.4,-0.9023 17.6,9 4,5.2969 7.1,13.7969 7.1,27.3983 0,0 0,1.699 0,4.801 v 125.5 c 0,20.301 -12.8,27.699 -24.7,27.699 v 4.403 h 129.2"
         style="fill:#ffffff;fill-opacity:1;fill-rule:nonzero;stroke:none"
         transform="matrix(0.13333333,0,0,-0.13333333,0,165.25333)" />
      <path
         id="path15"
         d="m 1848.09,175 c -0.71,29.719 0.82,56.41 0.82,85.957 22.08,0.828 38.49,1.535 49.93,-15.742 6.68,-10.094 9.25,-20.606 9.3,-31.293 0.05,-9.801 -0.7,-18.031 -5.54,-27.852 -8.29,-16.8 -24.43,-21.172 -43.02,-20.898 l -11.43,0.629 z m 100.65,-78.2187 c -14.66,18.4487 -22.51,32.5977 -34.67,52.8987 -0.84,1.429 -6.05,10.941 -8.86,13.961 0,0 8.64,5.898 10.14,7.238 16.75,15.101 24.53,39.98 17.14,65.793 -5,17.473 -28.96,35.883 -55.13,35.883 -14.88,0 -25.62,-0.512 -46.69,-0.086 -13.51,0.273 -22.09,0.187 -34.44,0.738 -0.02,-1.406 0,-5.449 0,-5.449 20.41,0 23.84,-8.778 23.73,-28.43 -0.22,-40.758 0.17,-82.109 0,-122.879 -0.08,-17.5388 1.89,-44.2693 -23.47,-44.2693 0,0 -0.01,-2.0391 -0.01,-3.6289 13.54,0 18.32,0.0078 39.56,0.0078 21.93,0 26.66,-0.1992 37.24,-0.1992 -0.02,1.4297 0.03,3.7109 0.03,3.7109 -8.28,0.1094 -14.09,2.8711 -18.38,7.25 -9.48,9.7383 -7.01,53.7187 -7.01,76.1017 14.02,-0.453 30.27,-0.133 30.27,-0.133 3.38,-7.219 8.69,-14.328 14.79,-24.41 7.57,-12.551 12.18,-21.57 20.26,-33.7774 6.76,-10.2032 16.39,-20.0821 30.12,-24.4102 12.14,-3.8203 40.71,-3.7226 46.74,-3.7422 v 3.4922 c -22.56,-0.3828 -33.16,14 -41.36,24.3399"
         style="fill:#ffffff;fill-opacity:1;fill-rule:nonzero;stroke:none"
         transform="matrix(0.13333333,0,0,-0.13333333,0,165.25333)" />
      <path
         id="path16"
         d="m 2590.78,175 c -0.72,29.719 0.82,56.41 0.82,85.957 22.07,0.828 38.48,1.535 49.93,-15.742 6.68,-10.094 9.25,-20.606 9.3,-31.293 0.05,-9.801 -0.7,-18.031 -5.54,-27.852 -8.3,-16.8 -24.43,-21.172 -43.02,-20.898 l -11.44,0.629 z m 33.58,-19.289 c 6.62,0.809 13,2.68 18.99,5.621 1.35,0.668 2.86,1.43 4.55,2.309 0,0 8.64,5.898 10.13,7.238 16.76,15.101 24.54,39.98 17.15,65.793 -5.01,17.473 -28.96,35.883 -55.13,35.883 -14.88,0 -25.63,-0.512 -46.7,-0.086 -13.5,0.273 -22.08,0.187 -34.44,0.738 -0.01,-1.406 0,-5.449 0,-5.449 20.42,0 23.84,-8.778 23.74,-28.43 -0.22,-40.758 0.17,-82.109 0,-122.879 -0.08,-17.5388 1.88,-44.2693 -23.47,-44.2693 0,0 -0.01,-2.0391 -0.01,-3.6289 13.53,0 18.32,0.0078 39.56,0.0078 21.92,0 26.65,-0.1992 37.24,-0.1992 -0.02,1.4297 0.03,3.7109 0.03,3.7109 -8.28,0.1094 -14.09,2.8711 -18.39,7.25 -9.47,9.7383 -7.01,53.7187 -7.01,76.1017 10.17,-0.332 21.51,-0.25 26.97,-0.184 2.17,0.032 4.29,0.172 6.45,0.434 l 0.34,0.039"
         style="fill:#ffffff;fill-opacity:1;fill-rule:nonzero;stroke:none"
         transform="matrix(0.13333333,0,0,-0.13333333,0,165.25333)" />
      <path
         id="path17"
         d="m 1447.05,259.094 c -1.75,0 -40.76,-0.199 -45.38,-0.199 -13.81,0 -19.69,-7.813 -21.65,-11.211 -1.43,-2.5 -4.12,-8.813 -5.78,-12.805 0,0 -1.36,-0.008 -2.77,0.012 4.73,17.043 8.87,28.968 9.24,44.957 h 2.56 c 0,-8.18 1.06,-8.93 15.68,-8.68 14.75,0.25 38.34,-1.422 59.95,-1.375 29.8,0.062 64.75,1.75 74.7,1.75 8.5,0 12.22,0.695 13.62,6.719 1.43,0.031 2.23,0.039 3.68,0.023 -1.33,-3.851 -6.26,-27.168 -6.93,-41.715 l -3.47,-0.019 c 1.6,14.078 -3.42,22.078 -15.83,22.078 -14.34,0 -34.35,0.172 -49.92,0.172 -0.04,-3.289 0.01,-6.488 0.01,-9.985 -0.05,-47.886 -0.01,-95.765 0.18,-143.644 0.06,-15.172 2.08,-33.1017 24.82,-33.2228 0,0 -0.03,-1.7109 -0.04,-2.7383 l -32.79,-0.0625 c -3.83,0.1719 -7.66,0.1719 -11.49,0 l -32.84,0.0625 0.05,2.8985 c 19.11,0.0898 24.24,16.2695 24.43,34.9926 0.52,50.16 -0.03,98.488 -0.03,151.992"
         style="fill:#ffffff;fill-opacity:1;fill-rule:nonzero;stroke:none"
         transform="matrix(0.13333333,0,0,-0.13333333,0,165.25333)" />
      <path
         id="path18"
         d="m 2882.27,259.094 c -1.74,0 -40.76,-0.199 -45.38,-0.199 -13.8,0 -19.69,-7.813 -21.64,-11.211 -1.44,-2.5 -4.13,-8.813 -5.78,-12.805 0,0 -1.36,-0.008 -2.78,0.012 4.73,17.043 8.87,28.968 9.25,44.957 h 2.56 c 0,-8.18 1.06,-8.93 15.67,-8.68 14.75,0.25 38.35,-1.422 59.96,-1.375 29.8,0.062 64.75,1.75 74.7,1.75 8.49,0 12.22,0.695 13.61,6.719 1.44,0.031 2.23,0.039 3.69,0.023 -1.33,-3.851 -6.27,-27.168 -6.93,-41.715 l -3.47,-0.019 c 1.6,14.078 -3.43,22.078 -15.84,22.078 -14.34,0 -34.34,0.172 -49.92,0.172 -0.04,-3.289 0.02,-6.488 0.01,-9.985 -0.05,-47.886 -0.01,-95.765 0.18,-143.644 0.06,-15.172 2.09,-33.1017 24.83,-33.2228 0,0 -0.04,-1.7109 -0.05,-2.7383 l -32.79,-0.0625 c -3.83,0.1719 -7.66,0.1719 -11.49,0 l -32.83,0.0625 0.05,2.8985 c 19.1,0.0898 24.24,16.2695 24.43,34.9926 0.51,50.16 -0.04,98.488 -0.04,151.992"
         style="fill:#ffffff;fill-opacity:1;fill-rule:nonzero;stroke:none"
         transform="matrix(0.13333333,0,0,-0.13333333,0,165.25333)" />
      <path
         id="path19"
         d="m 2281.9,129.309 c 0,-10.09 -0.28,-36.9692 -0.28,-50.8676 0,0 -3.21,-1.9805 -5.97,-2.9726 C 2225.54,57.4102 2151.19,52.8906 2106.8,95 c -33.92,32.18 -43.05,88.488 -30.48,139.059 16.53,49.191 55.73,73.757 105.51,77.66 26.46,2.074 55.3,2.41 80.41,-7.406 8.93,-3.493 12.84,-5.012 12.84,-5.012 0,-11.16 -0.03,-39.039 -0.03,-49.309 l -3.46,-0.015 c -4.83,33.8 -33.39,48.808 -64.12,49.265 -36.85,0.551 -67.87,-11.59 -87.96,-44.359 -26.39,-43.043 -18.08,-114.113 17.2,-150.352 26.03,-26.7419 75.94,-37.2497 108.33,-18.9724 12.77,7.2109 32.83,21.9104 32.83,43.7694 0,0 2,0.051 4.03,-0.019"
         style="fill:#ffffff;fill-opacity:1;fill-rule:nonzero;stroke:none"
         transform="matrix(0.13333333,0,0,-0.13333333,0,165.25333)" />
      <path
         id="path20"
         d="m 1335.37,266.863 c -7.16,0 -18.8,8.059 -40.07,8.059 -21.27,0 -55.97,-14.777 -55.97,-48.801 0,-34.031 36.38,-54.293 41.19,-59.109 4.82,-4.813 41.42,-27.981 41.42,-54.633 0,-26.6407 -18.13,-32.0079 -38.06,-32.0079 -19.92,0 -43.43,7.7695 -43.43,37.0979 l -5.97,0.062 V 81.4883 c 0,0 5.74,0.4531 9.77,-2.2383 4.03,-2.6914 14.22,-14.7812 39.63,-14.7812 35.37,0 62.69,16.5703 62.69,56.2032 0,39.629 -31.79,56.637 -46.35,67.828 -14.55,11.199 -35.82,21.27 -34.47,45.898 1.34,24.629 15.67,26.418 32.01,26.418 16.34,0 31.64,-6.714 31.64,-29.328 h 5.97 v 35.375"
         style="fill:#ffffff;fill-opacity:1;fill-rule:nonzero;stroke:none"
         transform="matrix(0.13333333,0,0,-0.13333333,0,165.25333)" />
      <path
         id="path21"
         d="m 1667.75,78.2109 c -42,0 -76.1,41.3981 -76.1,92.5981 0,51.101 34.1,92.504 76.1,92.504 42,0 76.1,-41.403 76.1,-92.504 0,-51.2 -34.1,-92.5981 -76.1,-92.5981 z m 0,196.6991 c -60.2,0 -109.1,-46.601 -109.1,-104.101 0,-57.5 48.9,-104.1996 109.1,-104.1996 60.2,0 109.1,46.6996 109.1,104.1996 0,57.5 -48.9,104.101 -109.1,104.101"
         style="fill:#ffffff;fill-opacity:1;fill-rule:nonzero;stroke:none"
         transform="matrix(0.13333333,0,0,-0.13333333,0,165.25333)" />
      <path
         id="path22"
         d="m 3325.67,111.148 c 0,-12.6285 0,-29.8082 0,-42.7886 -29.34,0.7422 -47.55,0 -70.07,0 -25.5,0 -35.58,0.4804 -57.54,0 0,1.8515 0,5.1797 0,5.1797 21.94,0.5625 20.89,15.6015 21.38,31.3589 1.45,46.102 1.67,68.153 -0.33,136.481 -0.39,13.059 -0.93,25.93 -23.69,25.93 0,0 0,4.359 0,5.898 12.26,-0.621 17.92,-0.961 37.94,-0.961 17.25,0 27.86,0.383 39.02,0.961 0.02,-1.684 0.01,-5.898 0.01,-5.898 -13.32,0 -23.58,-7.114 -23.58,-25.368 -1.17,-45.179 -1.3,-79.25 -0.71,-122.839 0,-26.5707 -1.83,-35.5239 32.35,-35.5239 27.31,0 37.87,7.5625 40.18,27.5939 0,0 3.35,-0.024 5.04,-0.024"
         style="fill:#ffffff;fill-opacity:1;fill-rule:nonzero;stroke:none"
         transform="matrix(0.13333333,0,0,-0.13333333,0,165.25333)" />
      <path
         id="path23"
         d="m 3858.05,370.91 v -5.199 l -0.9,-0.098 c -39.4,-3.402 -78.9,-5.203 -118.4,-5.203 H 319.652 c -39.601,0 -79.101,1.801 -118.5,5.203 l -0.902,0.098 v 5.199 h 3657.8"
         style="fill:#ffffff;fill-opacity:1;fill-rule:nonzero;stroke:none"
         transform="matrix(0.13333333,0,0,-0.13333333,0,165.25333)" />
    </g>
  </g>
</svg>
