<svg xmlns="http://www.w3.org/2000/svg" xmlns:xlink="http://www.w3.org/1999/xlink" width="192" zoomAndPan="magnify" viewBox="0 0 144 143.999998" height="192" preserveAspectRatio="xMidYMid meet" version="1.0"><defs><clipPath id="587a61be8b"><path d="M 0 48.078125 L 144 48.078125 L 144 96 L 0 96 Z M 0 48.078125 " clip-rule="nonzero"/></clipPath></defs><rect x="-14.4" width="172.8" fill="#ffffff" y="-14.4" height="172.799997" fill-opacity="1"/><rect x="-14.4" width="172.8" fill="#1a3a2f" y="-14.4" height="172.799997" fill-opacity="1"/><g clip-path="url(#587a61be8b)"><path fill="#c9a962" d="M 23.917969 48.078125 C 35.3125 48.078125 44.832031 56.015625 47.253906 66.667969 L 138.648438 66.667969 C 141.589844 66.667969 143.988281 69.066406 143.988281 71.984375 C 143.988281 74.925781 141.589844 77.324219 138.648438 77.324219 L 131.378906 77.324219 L 131.378906 85.234375 C 131.378906 88.003906 129.132812 90.253906 126.386719 90.253906 C 123.617188 90.253906 121.367188 88.003906 121.367188 85.234375 L 121.367188 77.324219 L 116.203125 77.324219 L 116.203125 90.425781 C 116.203125 93.171875 113.953125 95.417969 111.183594 95.417969 C 108.4375 95.417969 106.191406 93.171875 106.191406 90.425781 L 106.191406 77.324219 L 47.253906 77.324219 C 44.832031 87.980469 35.3125 95.914062 23.917969 95.914062 C 10.714844 95.914062 0.0117188 85.210938 0.0117188 71.984375 C 0.0117188 58.78125 10.714844 48.078125 23.917969 48.078125 Z M 23.917969 58.410156 C 31.433594 58.410156 37.511719 64.492188 37.511719 71.984375 C 37.511719 79.5 31.433594 85.582031 23.917969 85.582031 C 16.425781 85.582031 10.34375 79.5 10.34375 71.984375 C 10.34375 64.492188 16.425781 58.410156 23.917969 58.410156 Z M 23.917969 58.410156 " fill-opacity="1" fill-rule="evenodd"/></g></svg>