<svg xmlns="http://www.w3.org/2000/svg" xmlns:xlink="http://www.w3.org/1999/xlink" width="192" zoomAndPan="magnify" viewBox="0 0 144 143.999998" height="192" preserveAspectRatio="xMidYMid meet" version="1.0"><defs><clipPath id="56a31844fe"><path d="M 72 0 C 32.234375 0 0 32.234375 0 72 C 0 111.765625 32.234375 144 72 144 C 111.765625 144 144 111.765625 144 72 C 144 32.234375 111.765625 0 72 0 Z M 72 0 " clip-rule="nonzero"/></clipPath><clipPath id="59f61ada45"><path d="M 0 0 L 144 0 L 144 144 L 0 144 Z M 0 0 " clip-rule="nonzero"/></clipPath><clipPath id="f9081896c3"><path d="M 72 0 C 32.234375 0 0 32.234375 0 72 C 0 111.765625 32.234375 144 72 144 C 111.765625 144 144 111.765625 144 72 C 144 32.234375 111.765625 0 72 0 Z M 72 0 " clip-rule="nonzero"/></clipPath><clipPath id="6594f23dc8"><rect x="0" width="144" y="0" height="144"/></clipPath><clipPath id="46e06e398a"><path d="M 10.839844 51.679688 L 133.089844 51.679688 L 133.089844 92.179688 L 10.839844 92.179688 Z M 10.839844 51.679688 " clip-rule="nonzero"/></clipPath></defs><g clip-path="url(#56a31844fe)"><g transform="matrix(1, 0, 0, 1, 0, -0.000000000000008916)"><g clip-path="url(#6594f23dc8)"><g clip-path="url(#59f61ada45)"><g clip-path="url(#f9081896c3)"><rect x="-31.68" width="207.36" fill="#1a3a2f" height="207.359996" y="-31.679999" fill-opacity="1"/></g></g></g></g></g><g clip-path="url(#46e06e398a)"><path fill="#c9a962" d="M 31.148438 51.679688 C 40.832031 51.679688 48.917969 58.421875 50.976562 67.472656 L 128.621094 67.472656 C 131.121094 67.472656 133.160156 69.511719 133.160156 71.988281 C 133.160156 74.488281 131.121094 76.527344 128.621094 76.527344 L 122.445312 76.527344 L 122.445312 83.246094 C 122.445312 85.597656 120.535156 87.511719 118.203125 87.511719 C 115.851562 87.511719 113.941406 85.597656 113.941406 83.246094 L 113.941406 76.527344 L 109.550781 76.527344 L 109.550781 87.65625 C 109.550781 89.988281 107.640625 91.898438 105.289062 91.898438 C 102.957031 91.898438 101.046875 89.988281 101.046875 87.65625 L 101.046875 76.527344 L 50.976562 76.527344 C 48.917969 85.578125 40.832031 92.320312 31.148438 92.320312 C 19.933594 92.320312 10.839844 83.226562 10.839844 71.988281 C 10.839844 60.773438 19.933594 51.679688 31.148438 51.679688 Z M 31.148438 60.457031 C 37.53125 60.457031 42.699219 65.625 42.699219 71.988281 C 42.699219 78.375 37.53125 83.539062 31.148438 83.539062 C 24.785156 83.539062 19.617188 78.375 19.617188 71.988281 C 19.617188 65.625 24.785156 60.457031 31.148438 60.457031 Z M 31.148438 60.457031 " fill-opacity="1" fill-rule="evenodd"/></g></svg>